<mxfile host="app.diagrams.net" modified="2020-05-06T13:52:41.931Z" agent="5.0 (Macintosh; Intel Mac OS X 10_12_6) AppleWebKit/537.36 (KHTML, like Gecko) Chrome/81.0.4044.129 Safari/537.36" etag="pVM98nAknQpaihqZZJTu" version="13.0.8" type="github">
  <diagram name="Page-1" id="58cdce13-f638-feb5-8d6f-7d28b1aa9fa0">
    <mxGraphModel dx="946" dy="597" grid="1" gridSize="10" guides="1" tooltips="1" connect="1" arrows="1" fold="1" page="1" pageScale="1" pageWidth="1100" pageHeight="850" background="#ffffff" math="0" shadow="0">
      <root>
        <mxCell id="0" />
        <mxCell id="1" parent="0" />
        <mxCell id="Try7O3vhUrDc4LINnook-1" value="" style="ellipse;html=1;shape=startState;fillColor=#000000;strokeColor=#ff0000;" parent="1" vertex="1">
          <mxGeometry x="500" y="40" width="30" height="30" as="geometry" />
        </mxCell>
        <mxCell id="Try7O3vhUrDc4LINnook-2" value="" style="edgeStyle=orthogonalEdgeStyle;html=1;verticalAlign=bottom;endArrow=open;endSize=8;strokeColor=#ff0000;" parent="1" source="Try7O3vhUrDc4LINnook-1" edge="1">
          <mxGeometry relative="1" as="geometry">
            <mxPoint x="515" y="130" as="targetPoint" />
          </mxGeometry>
        </mxCell>
        <mxCell id="Try7O3vhUrDc4LINnook-3" value="secretary logs in" style="rounded=1;whiteSpace=wrap;html=1;arcSize=40;fontColor=#000000;fillColor=#ffffc0;strokeColor=#ff0000;" parent="1" vertex="1">
          <mxGeometry x="455" y="130" width="120" height="40" as="geometry" />
        </mxCell>
        <mxCell id="Try7O3vhUrDc4LINnook-4" value="" style="edgeStyle=orthogonalEdgeStyle;html=1;verticalAlign=bottom;endArrow=open;endSize=8;strokeColor=#ff0000;" parent="1" source="Try7O3vhUrDc4LINnook-3" edge="1">
          <mxGeometry relative="1" as="geometry">
            <mxPoint x="515" y="230" as="targetPoint" />
          </mxGeometry>
        </mxCell>
        <mxCell id="Try7O3vhUrDc4LINnook-5" value="views pending online appointments" style="rounded=1;whiteSpace=wrap;html=1;arcSize=40;fontColor=#000000;fillColor=#ffffc0;strokeColor=#ff0000;" parent="1" vertex="1">
          <mxGeometry x="455" y="230" width="120" height="40" as="geometry" />
        </mxCell>
        <mxCell id="Try7O3vhUrDc4LINnook-6" value="" style="edgeStyle=orthogonalEdgeStyle;html=1;verticalAlign=bottom;endArrow=open;endSize=8;strokeColor=#ff0000;" parent="1" source="Try7O3vhUrDc4LINnook-5" edge="1">
          <mxGeometry relative="1" as="geometry">
            <mxPoint x="515" y="330" as="targetPoint" />
          </mxGeometry>
        </mxCell>
        <mxCell id="Try7O3vhUrDc4LINnook-9" value="Accept appointment" style="rhombus;whiteSpace=wrap;html=1;fillColor=#ffffc0;strokeColor=#ff0000;" parent="1" vertex="1">
          <mxGeometry x="450" y="330" width="130" height="95" as="geometry" />
        </mxCell>
        <mxCell id="Try7O3vhUrDc4LINnook-10" value="no" style="edgeStyle=orthogonalEdgeStyle;html=1;align=left;verticalAlign=bottom;endArrow=open;endSize=8;strokeColor=#ff0000;" parent="1" source="Try7O3vhUrDc4LINnook-9" edge="1">
          <mxGeometry x="-1" relative="1" as="geometry">
            <mxPoint x="640" y="440" as="targetPoint" />
          </mxGeometry>
        </mxCell>
        <mxCell id="Try7O3vhUrDc4LINnook-11" value="yes" style="edgeStyle=orthogonalEdgeStyle;html=1;align=left;verticalAlign=top;endArrow=open;endSize=8;strokeColor=#ff0000;" parent="1" source="Try7O3vhUrDc4LINnook-9" edge="1">
          <mxGeometry x="-1" y="-15" relative="1" as="geometry">
            <mxPoint x="515" y="500" as="targetPoint" />
            <mxPoint x="15" y="-15" as="offset" />
          </mxGeometry>
        </mxCell>
        <mxCell id="Try7O3vhUrDc4LINnook-12" value="Appointment is rejected" style="rounded=1;whiteSpace=wrap;html=1;arcSize=40;fontColor=#000000;fillColor=#ffffc0;strokeColor=#ff0000;" parent="1" vertex="1">
          <mxGeometry x="580" y="440" width="120" height="40" as="geometry" />
        </mxCell>
        <mxCell id="Try7O3vhUrDc4LINnook-14" value="calendar is updated with new appointment" style="rounded=1;whiteSpace=wrap;html=1;arcSize=40;fontColor=#000000;fillColor=#ffffc0;strokeColor=#ff0000;" parent="1" vertex="1">
          <mxGeometry x="455" y="500" width="125" height="60" as="geometry" />
        </mxCell>
        <mxCell id="Try7O3vhUrDc4LINnook-15" value="" style="edgeStyle=orthogonalEdgeStyle;html=1;verticalAlign=bottom;endArrow=open;endSize=8;strokeColor=#ff0000;" parent="1" source="Try7O3vhUrDc4LINnook-14" edge="1">
          <mxGeometry relative="1" as="geometry">
            <mxPoint x="518" y="620" as="targetPoint" />
            <Array as="points">
              <mxPoint x="518" y="590" />
              <mxPoint x="518" y="590" />
            </Array>
          </mxGeometry>
        </mxCell>
        <mxCell id="Try7O3vhUrDc4LINnook-16" value="" style="ellipse;html=1;shape=endState;fillColor=#000000;strokeColor=#ff0000;" parent="1" vertex="1">
          <mxGeometry x="500" y="780" width="30" height="30" as="geometry" />
        </mxCell>
        <mxCell id="4RuJ5-eQlRFZTJvUIswt-1" value="" style="shape=line;html=1;strokeWidth=6;strokeColor=#ff0000;" parent="1" vertex="1">
          <mxGeometry x="415" y="620" width="200" height="10" as="geometry" />
        </mxCell>
        <mxCell id="4RuJ5-eQlRFZTJvUIswt-3" value="" style="edgeStyle=orthogonalEdgeStyle;html=1;verticalAlign=bottom;endArrow=open;endSize=8;strokeColor=#ff0000;exitX=0.5;exitY=1;exitDx=0;exitDy=0;" parent="1" source="Try7O3vhUrDc4LINnook-12" edge="1">
          <mxGeometry relative="1" as="geometry">
            <mxPoint x="570" y="620" as="targetPoint" />
            <Array as="points">
              <mxPoint x="640" y="580" />
              <mxPoint x="570" y="580" />
            </Array>
            <mxPoint x="639.5" y="490" as="sourcePoint" />
          </mxGeometry>
        </mxCell>
        <mxCell id="4RuJ5-eQlRFZTJvUIswt-4" value="back to main page" style="rounded=1;whiteSpace=wrap;html=1;arcSize=40;fontColor=#000000;fillColor=#ffffc0;strokeColor=#ff0000;" parent="1" vertex="1">
          <mxGeometry x="455" y="690" width="120" height="40" as="geometry" />
        </mxCell>
        <mxCell id="4RuJ5-eQlRFZTJvUIswt-5" value="" style="edgeStyle=orthogonalEdgeStyle;html=1;verticalAlign=bottom;endArrow=open;endSize=8;strokeColor=#ff0000;" parent="1" source="4RuJ5-eQlRFZTJvUIswt-4" edge="1">
          <mxGeometry relative="1" as="geometry">
            <mxPoint x="515" y="780" as="targetPoint" />
            <Array as="points">
              <mxPoint x="515" y="740" />
              <mxPoint x="515" y="740" />
            </Array>
          </mxGeometry>
        </mxCell>
        <mxCell id="4RuJ5-eQlRFZTJvUIswt-7" value="" style="edgeStyle=orthogonalEdgeStyle;html=1;verticalAlign=bottom;endArrow=open;endSize=8;strokeColor=#ff0000;" parent="1" edge="1">
          <mxGeometry relative="1" as="geometry">
            <mxPoint x="517.5" y="690" as="targetPoint" />
            <Array as="points">
              <mxPoint x="518" y="630" />
              <mxPoint x="518" y="660" />
            </Array>
            <mxPoint x="517" y="630" as="sourcePoint" />
          </mxGeometry>
        </mxCell>
      </root>
    </mxGraphModel>
  </diagram>
</mxfile>
